# xmcd CD database file
#
# Track frame offsets:
#	187
#	18612
#	42449
#	62794
#	85069
#	107772
#	130729
#	161232
#	189667
#	204429
#	244977
#	257034
#
# Disc length: 3665 seconds
#
# Revision: 1
# Processed by: cddbd v1.5.2PL0 Copyright (c) Steve Scherf et al.
# Submitted via: CDex 1.51
#
DISCID=aa0e4f0c
DTITLE=Georgie Fame - Cool Cat Blues
DYEAR=1991
DGENRE=Rock
TTITLE0=Cool Cat Blues
TTITLE1=Every Knock Is A Boost
TTITLE2=You Came A Long Way From St. Louis
TTITLE3=Big Brother
TTITLE4=It Should Have Been Me
TTITLE5=Yeah Yeah
TTITLE6=Moondance
TTITLE7=Cat's Eyes
TTITLE8=I Love The Life I Live
TTITLE9=Survival
TTITLE10=Little Pony
TTITLE11=Rocking Chair
EXTD=YEAR: 1991
EXTT0=
EXTT1=
EXTT2=
EXTT3=
EXTT4=
EXTT5=
EXTT6=
EXTT7=
EXTT8=
EXTT9=
EXTT10=
EXTT11=
PLAYORDER=
